HIERARCHY
ROOT Hips
{
	OFFSET 0.000000 97.167313 0.000000
	CHANNELS 6 Xposition Yposition Zposition Xrotation Yrotation Zrotation
	JOINT Spine
	{
		OFFSET 0.000000 13.784798 0.064400
		CHANNELS 3 Xrotation Yrotation Zrotation
		JOINT Spine1
		{
			OFFSET 0.000000 12.037903 0.404700
			CHANNELS 3 Xrotation Yrotation Zrotation
			JOINT Spine2
			{
				OFFSET 0.000000 17.795601 0.420200
				CHANNELS 3 Xrotation Yrotation Zrotation
				JOINT Neck
				{
					OFFSET 0.000000 39.131302 11.954600
					CHANNELS 3 Xrotation Yrotation Zrotation
					JOINT Head
					{
						OFFSET 0.000000 14.456192 15.627699
						CHANNELS 3 Xrotation Yrotation Zrotation
						JOINT HeadTop_End
						{
							OFFSET 0.000000 15.703506 7.603401
							CHANNELS 3 Xrotation Yrotation Zrotation
							End Site
							{
								OFFSET 0.000000 17.447403 0.000000
							}
						}
					}
				}
				JOINT LeftShoulder
				{
					OFFSET 17.399500 24.608795 1.168800
					CHANNELS 3 Xrotation Yrotation Zrotation
					JOINT LeftArm
					{
						OFFSET 18.980635 5.765305 1.818600
						CHANNELS 3 Xrotation Yrotation Zrotation
						JOINT LeftForeArm
						{
							OFFSET 49.290169 0.000000 0.000000
							CHANNELS 3 Xrotation Yrotation Zrotation
							JOINT LeftHand
							{
								OFFSET 31.562012 0.000000 0.000000
								CHANNELS 3 Xrotation Yrotation Zrotation
								JOINT LeftHandThumb1
								{
									OFFSET 6.133995 -4.388519 7.076070
									CHANNELS 3 Xrotation Yrotation Zrotation
									JOINT LeftHandThumb2
									{
										OFFSET 6.037666 -3.485840 3.485847
										CHANNELS 3 Xrotation Yrotation Zrotation
										JOINT LeftHandThumb3
										{
											OFFSET 6.496506 -3.750763 3.750761
											CHANNELS 3 Xrotation Yrotation Zrotation
											JOINT LeftHandThumb4
											{
												OFFSET 5.616882 -3.242905 3.242910
												CHANNELS 3 Xrotation Yrotation Zrotation
												End Site
												{
													OFFSET -1.254608 7.132141 0.375429
												}
											}
										}
									}
								}
								JOINT LeftHandPinky1
								{
									OFFSET 18.920792 -0.453171 -11.426712
									CHANNELS 3 Xrotation Yrotation Zrotation
									JOINT LeftHandPinky2
									{
										OFFSET 4.919586 0.000000 0.000000
										CHANNELS 3 Xrotation Yrotation Zrotation
										JOINT LeftHandPinky3
										{
											OFFSET 5.233047 0.000000 0.000000
											CHANNELS 3 Xrotation Yrotation Zrotation
											JOINT LeftHandPinky4
											{
												OFFSET 5.571716 0.000000 0.000000
												CHANNELS 3 Xrotation Yrotation Zrotation
												End Site
												{
													OFFSET -3.459808 4.342407 -0.466164
												}
											}
										}
									}
								}
								JOINT LeftHandRing1
								{
									OFFSET 22.726120 -0.094986 -6.500475
									CHANNELS 3 Xrotation Yrotation Zrotation
									JOINT LeftHandRing2
									{
										OFFSET 6.408615 0.000000 0.000000
										CHANNELS 3 Xrotation Yrotation Zrotation
										JOINT LeftHandRing3
										{
											OFFSET 6.150223 0.000000 0.000000
											CHANNELS 3 Xrotation Yrotation Zrotation
											JOINT LeftHandRing4
											{
												OFFSET 6.145386 0.000000 0.000000
												CHANNELS 3 Xrotation Yrotation Zrotation
												End Site
												{
													OFFSET -3.671402 4.923981 -0.202372
												}
											}
										}
									}
								}
								JOINT LeftHandMiddle1
								{
									OFFSET 23.373947 0.000000 0.000001
									CHANNELS 3 Xrotation Yrotation Zrotation
									JOINT LeftHandMiddle2
									{
										OFFSET 6.996567 0.000000 0.000000
										CHANNELS 3 Xrotation Yrotation Zrotation
										JOINT LeftHandMiddle3
										{
											OFFSET 7.015945 0.000000 0.000000
											CHANNELS 3 Xrotation Yrotation Zrotation
											JOINT LeftHandMiddle4
											{
												OFFSET 7.721573 0.000000 0.000000
												CHANNELS 3 Xrotation Yrotation Zrotation
												End Site
												{
													OFFSET -4.651108 6.158463 0.251582
												}
											}
										}
									}
								}
								JOINT LeftHandIndex1
								{
									OFFSET 21.310577 -0.490082 6.209344
									CHANNELS 3 Xrotation Yrotation Zrotation
									JOINT LeftHandIndex2
									{
										OFFSET 7.536453 0.000000 0.000000
										CHANNELS 3 Xrotation Yrotation Zrotation
										JOINT LeftHandIndex3
										{
											OFFSET 7.512344 0.000000 0.000000
											CHANNELS 3 Xrotation Yrotation Zrotation
											JOINT LeftHandIndex4
											{
												OFFSET 10.212402 0.000000 0.000001
												CHANNELS 3 Xrotation Yrotation Zrotation
												End Site
												{
													OFFSET -5.180801 8.690506 1.388433
												}
											}
										}
									}
								}
							}
						}
					}
				}
				JOINT RightShoulder
				{
					OFFSET -17.399500 24.608795 1.168800
					CHANNELS 3 Xrotation Yrotation Zrotation
					JOINT RightArm
					{
						OFFSET -18.980635 5.765305 1.818600
						CHANNELS 3 Xrotation Yrotation Zrotation
						JOINT RightForeArm
						{
							OFFSET -49.290169 0.000000 0.000000
							CHANNELS 3 Xrotation Yrotation Zrotation
							JOINT RightHand
							{
								OFFSET -31.562012 0.000000 0.000000
								CHANNELS 3 Xrotation Yrotation Zrotation
								JOINT RightHandThumb1
								{
									OFFSET -6.133995 -4.388519 7.076070
									CHANNELS 3 Xrotation Yrotation Zrotation
									JOINT RightHandThumb2
									{
										OFFSET -6.037666 -3.485840 3.485847
										CHANNELS 3 Xrotation Yrotation Zrotation
										JOINT RightHandThumb3
										{
											OFFSET -6.496506 -3.750763 3.750761
											CHANNELS 3 Xrotation Yrotation Zrotation
											JOINT RightHandThumb4
											{
												OFFSET -5.616882 -3.242905 3.242910
												CHANNELS 3 Xrotation Yrotation Zrotation
												End Site
												{
													OFFSET 1.254608 7.132141 0.375429
												}
											}
										}
									}
								}
								JOINT RightHandIndex1
								{
									OFFSET -21.310577 -0.490082 6.209344
									CHANNELS 3 Xrotation Yrotation Zrotation
									JOINT RightHandIndex2
									{
										OFFSET -7.536453 0.000000 0.000000
										CHANNELS 3 Xrotation Yrotation Zrotation
										JOINT RightHandIndex3
										{
											OFFSET -7.512344 0.000000 0.000000
											CHANNELS 3 Xrotation Yrotation Zrotation
											JOINT RightHandIndex4
											{
												OFFSET -10.212402 0.000000 0.000001
												CHANNELS 3 Xrotation Yrotation Zrotation
												End Site
												{
													OFFSET 5.180801 8.690506 1.388433
												}
											}
										}
									}
								}
								JOINT RightHandMiddle1
								{
									OFFSET -23.373947 0.000000 0.000001
									CHANNELS 3 Xrotation Yrotation Zrotation
									JOINT RightHandMiddle2
									{
										OFFSET -6.996567 0.000000 0.000000
										CHANNELS 3 Xrotation Yrotation Zrotation
										JOINT RightHandMiddle3
										{
											OFFSET -7.015945 0.000000 0.000000
											CHANNELS 3 Xrotation Yrotation Zrotation
											JOINT RightHandMiddle4
											{
												OFFSET -7.721573 0.000000 0.000000
												CHANNELS 3 Xrotation Yrotation Zrotation
												End Site
												{
													OFFSET 4.651108 6.158463 0.251582
												}
											}
										}
									}
								}
								JOINT RightHandRing1
								{
									OFFSET -22.726120 -0.094986 -6.500475
									CHANNELS 3 Xrotation Yrotation Zrotation
									JOINT RightHandRing2
									{
										OFFSET -6.408615 0.000000 0.000000
										CHANNELS 3 Xrotation Yrotation Zrotation
										JOINT RightHandRing3
										{
											OFFSET -6.150223 0.000000 0.000000
											CHANNELS 3 Xrotation Yrotation Zrotation
											JOINT RightHandRing4
											{
												OFFSET -6.145386 0.000000 0.000000
												CHANNELS 3 Xrotation Yrotation Zrotation
												End Site
												{
													OFFSET 3.671402 4.923981 -0.202372
												}
											}
										}
									}
								}
								JOINT RightHandPinky1
								{
									OFFSET -18.920792 -0.453171 -11.426712
									CHANNELS 3 Xrotation Yrotation Zrotation
									JOINT RightHandPinky2
									{
										OFFSET -4.919586 0.000000 0.000000
										CHANNELS 3 Xrotation Yrotation Zrotation
										JOINT RightHandPinky3
										{
											OFFSET -5.233047 0.000000 0.000000
											CHANNELS 3 Xrotation Yrotation Zrotation
											JOINT RightHandPinky4
											{
												OFFSET -5.571716 0.000000 0.000000
												CHANNELS 3 Xrotation Yrotation Zrotation
												End Site
												{
													OFFSET 3.459808 4.342407 -0.466164
												}
											}
										}
									}
								}
							}
						}
					}
				}
			}
		}
	}
	JOINT LeftUpLeg
	{
		OFFSET 19.899099 -7.885101 -3.429500
		CHANNELS 3 Xrotation Yrotation Zrotation
		JOINT LeftLeg
		{
			OFFSET 1.745560 -36.997807 10.304700
			CHANNELS 3 Xrotation Yrotation Zrotation
			JOINT LeftFoot
			{
				OFFSET -1.745558 -29.803308 -13.615400
				CHANNELS 3 Xrotation Yrotation Zrotation
				JOINT LeftToeBase
				{
					OFFSET 1.181900 -18.539904 15.226099
					CHANNELS 3 Xrotation Yrotation Zrotation
					JOINT LeftToe_End
					{
						OFFSET -0.863701 1.402801 16.534700
						CHANNELS 3 Xrotation Yrotation Zrotation
						End Site
						{
							OFFSET 0.000000 16.616566 0.000000
						}
					}
				}
			}
		}
	}
	JOINT RightUpLeg
	{
		OFFSET -19.899099 -7.885101 -3.429500
		CHANNELS 3 Xrotation Yrotation Zrotation
		JOINT RightLeg
		{
			OFFSET -1.745560 -36.997807 10.304700
			CHANNELS 3 Xrotation Yrotation Zrotation
			JOINT RightFoot
			{
				OFFSET 1.745558 -29.803308 -13.615400
				CHANNELS 3 Xrotation Yrotation Zrotation
				JOINT RightToeBase
				{
					OFFSET -1.181900 -18.539904 15.226099
					CHANNELS 3 Xrotation Yrotation Zrotation
					JOINT RightToe_End
					{
						OFFSET 0.863701 1.402801 16.534700
						CHANNELS 3 Xrotation Yrotation Zrotation
						End Site
						{
							OFFSET 0.000000 16.616566 0.000000
						}
					}
				}
			}
		}
	}
}
MOTION
Frames: 4
Frame Time: 0.033333
1.251789 74.677773 -1.208908 24.041926 11.524116 -8.261040 6.863327 2.219057 4.664515 4.048000 0.490524 1.167249 4.041875 0.462670 1.206505 -5.959119 -2.615315 0.701365 -22.420169 -13.694786 5.016414 0.000000 0.000000 0.000000 0.378918 -7.651152 -16.250072 41.316880 -33.652540 -34.962328 0.000018 -34.763518 0.000017 27.363300 -0.678350 -29.854661 -6.377639 -4.531761 17.579044 11.358931 21.925539 3.842124 -14.206178 -9.550716 6.688024 -0.000000 0.000002 0.000000 21.681659 16.193057 -96.091596 2.621079 4.881346 -56.447460 1.640030 4.065935 -43.919793 -0.000003 0.000001 -0.000009 8.804309 8.355362 -87.091059 2.615315 4.877509 -56.379622 1.569599 3.991680 -42.917494 -0.000001 -0.000001 0.000002 3.531758 8.088313 -87.101339 2.521794 4.814246 -55.272486 1.633597 4.059269 -43.829471 0.000001 -0.000001 0.000004 -5.108761 1.925591 -86.316345 2.500691 4.799600 -55.020753 1.637482 4.063293 -43.884249 -0.000000 -0.000000 -0.000001 1.387424 24.986026 5.633517 -11.324359 9.201750 46.319662 -0.000045 81.417931 0.000060 -18.102218 17.545178 -19.831236 -3.231078 2.226589 -6.622317 10.297955 -20.226051 -3.752265 -5.798456 14.169076 -11.761604 0.000001 0.000001 -0.000000 0.936247 -2.886143 55.636313 1.856471 -3.722406 53.001295 1.856388 -3.722340 52.999997 -0.000001 -0.000001 -0.000003 2.181955 -6.202774 60.913136 2.219062 -3.969192 58.403493 2.219051 -3.969161 58.403302 0.000001 0.000000 -0.000006 6.415521 -8.042997 67.155062 2.669240 -4.212410 64.707464 2.655523 -4.205918 64.520685 -0.000000 -0.000001 -0.000003 6.881153 -12.610594 71.478613 2.969970 -4.341416 68.738245 2.971177 -4.341897 68.754310 -0.000000 -0.000004 0.000005 -50.683125 6.475954 6.866557 80.243760 12.437101 2.753945 10.221389 23.705425 8.663111 0.906055 0.406718 -6.004293 -0.000000 0.000001 -0.000004 -23.233751 -4.714333 7.479211 52.611209 -3.418730 -0.384101 -39.602284 1.411253 -4.683375 -18.891504 0.000004 0.000001 -0.000000 -0.000001 0.000000 
0.901174 77.974365 9.075218 21.558497 13.981183 -7.082726 7.414110 1.499213 2.849196 4.329995 0.300858 1.039332 4.327930 0.257024 1.078811 -4.858030 -2.996683 0.718651 -19.559119 -16.390000 6.467042 0.000000 0.000000 0.000000 0.489950 -6.201166 -14.902925 48.410339 -30.625906 -33.742743 0.000020 -35.878854 0.000012 28.349651 -3.764997 -35.776674 -6.414867 -4.546944 17.564871 11.334935 21.897561 3.836834 -14.157351 -9.439079 6.752521 -0.000002 0.000002 0.000002 21.673433 16.280101 -95.850947 2.606474 4.871641 -56.275769 1.627002 4.052416 -43.736194 -0.000000 -0.000000 -0.000000 8.822940 8.372101 -86.809689 2.601088 4.868036 -56.212296 1.557158 3.978315 -42.738676 -0.000000 -0.000001 0.000005 3.512817 8.077124 -86.820222 2.507297 4.804203 -55.099870 1.620663 4.045805 -43.646497 0.000000 -0.000000 0.000001 -5.105890 1.867081 -86.048943 2.486366 4.789592 -54.849271 1.624523 4.049804 -43.700957 -0.000002 0.000001 -0.000003 1.974642 25.668587 3.430326 -11.800699 8.409413 50.294347 0.000213 88.210671 -0.000147 -18.435662 8.422550 -14.672238 -3.239216 2.267477 -6.611055 10.293763 -20.182306 -3.748627 -5.795251 14.152763 -11.766168 0.000001 -0.000001 -0.000000 0.921565 -2.854367 55.501909 1.847659 -3.715775 52.865367 1.847570 -3.715697 52.864138 -0.000002 -0.000003 -0.000002 2.172634 -6.196800 60.776820 2.209673 -3.963397 58.267545 2.209629 -3.963373 58.267340 0.000001 -0.000001 -0.000004 6.417126 -8.053462 67.019107 2.659273 -4.207707 64.571625 2.645562 -4.201169 64.384758 0.000000 0.000001 0.000000 6.890313 -12.642953 71.342924 2.959646 -4.337412 68.602140 2.960890 -4.337903 68.618259 0.000001 0.000001 0.000004 -53.135481 8.333893 1.320355 72.403714 9.481238 2.393675 3.855194 28.260785 6.371093 -9.678527 7.814789 -29.677442 -0.000003 -0.000002 0.000001 -5.062384 -6.798059 9.733113 36.145084 -5.598238 -0.058209 -36.500251 4.104424 -9.406764 -24.688007 -0.000000 -0.000002 -0.000000 -0.000001 -0.000001 
0.295547 81.073204 19.247072 18.843519 16.311521 -6.164242 7.992403 0.743774 1.839276 4.654965 0.238589 1.023180 4.653779 0.190611 1.062911 -3.858492 -3.086502 0.556353 -16.138084 -17.652791 7.763970 0.000000 0.000000 0.000000 0.564778 -4.840944 -12.921633 54.075731 -28.784610 -33.301195 0.000023 -36.768752 -0.000013 30.636714 -3.403955 -40.500351 -6.522272 -4.590822 17.523743 11.267153 21.817088 3.816028 -14.016985 -9.116557 6.937629 0.000001 0.000002 -0.000002 21.646995 16.532336 -95.156310 2.564536 4.843474 -55.780406 1.589765 4.013242 -43.206558 -0.000002 -0.000000 -0.000000 8.876157 8.422172 -85.997962 2.560240 4.840591 -55.729576 1.521554 3.939505 -42.222819 0.000000 -0.000002 0.000007 3.458531 8.044593 -86.009417 2.465739 4.775038 -54.601994 1.583612 4.006671 -43.118697 0.000001 -0.000001 0.000004 -5.084451 1.693103 -85.278095 2.445174 4.760414 -54.354540 1.587364 4.010670 -43.172232 -0.000000 -0.000000 -0.000001 2.282087 26.414640 2.365647 -10.904274 8.161244 53.357704 -0.000038 94.127732 0.000069 -16.991142 6.010637 -14.513110 -3.269726 2.386236 -6.575110 10.281734 -20.056120 -3.738113 -5.790771 14.103760 -11.779377 0.000001 0.000002 -0.000000 0.879130 -2.762457 55.112568 1.822210 -3.696413 52.471685 1.822119 -3.696336 52.470411 -0.000001 0.000000 -0.000001 2.145657 -6.179310 60.381857 2.182483 -3.946491 57.873593 2.182461 -3.946504 57.873388 0.000000 0.000001 -0.000004 6.421539 -8.083998 66.625224 2.630453 -4.193902 64.178083 2.616759 -4.187268 63.990909 -0.000000 0.000001 -0.000003 6.916550 -12.736150 70.949819 2.929884 -4.325655 68.207826 2.931104 -4.326140 68.223932 0.000002 -0.000001 0.000004 -52.368539 10.139720 -3.919329 59.938093 6.220903 1.145870 3.659531 27.954276 7.964024 -18.546289 5.238297 -16.516075 -0.000000 -0.000003 0.000001 4.633812 -10.740395 10.435122 26.843116 -3.373885 0.250183 -17.905191 2.785955 -9.964899 -37.845351 0.000002 -0.000001 -0.000000 0.000001 -0.000000 
-0.343486 82.439270 27.930676 15.852620 18.227668 -5.074425 8.374500 0.263658 1.048154 4.831212 0.258120 1.087398 4.829332 0.218358 1.127074 -3.067129 -2.510021 -0.060688 -13.947269 -15.982791 8.796434 0.000001 -0.000000 0.000000 0.586359 -2.791145 -11.819191 57.395330 -26.574922 -32.358411 0.000016 -36.994408 -0.000001 33.867824 -5.049854 -48.739834 -6.693919 -4.660757 17.457648 11.159061 21.688557 3.782304 -13.794476 -8.600083 7.230515 0.000001 -0.000001 0.000006 21.596170 16.938768 -94.044888 2.498035 4.797766 -54.989119 1.531012 3.949889 -42.360495 -0.000003 -0.000001 -0.000002 8.959498 8.507807 -84.701347 2.495453 4.795965 -54.958298 1.465380 3.876875 -41.398781 -0.000000 0.000000 0.000003 3.372739 7.991849 -84.714174 2.399863 4.727697 -53.806618 1.525170 3.943502 -42.275586 0.000000 -0.000000 0.000004 -5.044451 1.416329 -84.046495 2.379912 4.713092 -53.564287 1.528760 3.947411 -42.327621 -0.000000 0.000006 -0.000002 2.319179 26.937877 2.343061 -8.116643 9.495783 53.581321 -0.000007 99.688086 0.000019 -13.619967 6.154748 -15.338783 -3.318647 2.575909 -6.517533 10.262473 -19.854673 -3.721310 -5.777238 14.024223 -11.801390 0.000001 -0.000001 0.000001 0.811369 -2.615271 54.487513 1.781632 -3.664932 51.839483 1.781535 -3.664840 51.838185 -0.000000 -0.000002 0.000003 2.102627 -6.150844 59.747654 2.139110 -3.918992 57.241015 2.139085 -3.918973 57.240824 -0.000000 -0.000000 -0.000004 6.428099 -8.133849 65.992550 2.584361 -4.171354 63.546174 2.570681 -4.164543 63.358365 -0.000001 0.000001 -0.000003 6.958348 -12.884300 70.318471 2.882235 -4.306346 67.574627 2.883431 -4.306869 67.590753 -0.000000 0.000003 -0.000001 -51.981937 14.207319 -9.486813 48.131650 1.300877 1.177511 5.593137 27.719819 7.433332 -18.044110 0.412650 -1.484925 0.000000 -0.000002 0.000000 8.375051 -13.134411 10.333092 21.311862 -1.772589 0.109119 10.144855 1.831431 -8.138967 -58.521778 -0.022502 0.167857 -0.000000 0.000000 0.000000 
